<?xml version="1.0" encoding="utf-8"?>
<!-- Generator: Adobe Illustrator 23.0.1, SVG Export Plug-In . SVG Version: 6.00 Build 0)  -->
<svg version="1.1" id="Capa_1" xmlns="http://www.w3.org/2000/svg" xmlns:xlink="http://www.w3.org/1999/xlink" x="0px" y="0px"
	 viewBox="0 0 411.9 411.9" style="enable-background:new 0 0 411.9 411.9;" xml:space="preserve">
<style type="text/css">
	.st0{fill:#ff1d25;}
</style>
<g>
	<g>
		<path class="st0" d="M404.4,29.1H7.6c-4.2,0-7.6,3.4-7.6,7.6v29.5c0,4.2,3.4,7.6,7.6,7.6h14v271.9c0,4.2,3.4,7.6,7.6,7.6h353.7
			c4.2,0,7.6-3.4,7.6-7.6V73.7h14c4.2,0,7.6-3.4,7.6-7.6V36.7C411.9,32.5,408.5,29.1,404.4,29.1z M36.7,338v-264h338.5v264H36.7z
			 M396.8,58.6L396.8,58.6H15.1V44.3h381.7V58.6z"/>
	</g>
</g>
<g>
	<g>
		<path class="st0" d="M347.5,162.2c-1.5-1.5-3.7-2.2-5.8-1.7l-34.8,7.5c-2.3,0.5-4.1,2.2-4.7,4.4c-0.7,2.2,0,4.6,1.6,6.2l8.5,8.5
			l-29.2,29.2l-24-24c-3-3-7.8-3-10.7,0l-52.8,52.8c-3,3-3,7.8,0,10.7c1.5,1.5,3.4,2.2,5.4,2.2s3.9-0.7,5.4-2.2l47.4-47.4l24,24
			c3,3,7.8,3,10.7,0l34.6-34.5l8.2,8.2c1.2,1.2,2.8,1.8,4.5,1.8c0.6,0,1.2-0.1,1.8-0.3c2.2-0.7,3.9-2.5,4.4-4.7l7.5-34.8
			C349.7,165.9,349.1,163.8,347.5,162.2z"/>
	</g>
</g>
<g>
	<g>
		<path class="st0" d="M133.6,121c-4.2,0-7.6,3.4-7.6,7.6v41.9H84.1c-4.2,0-7.6,3.4-7.6,7.6c0,31.4,25.6,57,57,57s57-25.6,57-57
			S165,121,133.6,121z M133.6,219.9c-20.5,0-37.6-14.8-41.2-34.3h41.2c4.2,0,7.6-3.4,7.6-7.6v-41.2c19.5,3.6,34.3,20.7,34.3,41.2
			C175.5,201.1,156.7,219.9,133.6,219.9z"/>
	</g>
</g>
<g>
	<g>
		<path class="st0" d="M108.7,98.3h-0.2c-31.1,0-56.4,25.3-56.4,56.4c0,4.2,3.4,7.6,7.6,7.6h49c4.2,0,7.6-3.4,7.6-7.6v-48.8
			C116.3,101.7,112.9,98.3,108.7,98.3z"/>
	</g>
</g>
<g>
	<g>
		<path class="st0" d="M347.6,297.2h-14.5v-17.3c0-4.2-3.4-7.6-7.6-7.6c-4.2,0-7.6,3.4-7.6,7.6v17.3h-8v-50.5c0-4.2-3.4-7.6-7.6-7.6
			c-4.2,0-7.6,3.4-7.6,7.6v50.5h-8v-33.9c0-4.2-3.4-7.6-7.6-7.6c-4.2,0-7.6,3.4-7.6,7.6v33.9h-8v-58.8c0-4.2-3.4-7.6-7.6-7.6
			c-4.2,0-7.6,3.4-7.6,7.6v58.8h-8v-25.6c0-4.2-3.4-7.6-7.6-7.6s-7.6,3.4-7.6,7.6v25.6h-15.6c-4.2,0-7.6,3.4-7.6,7.6
			c0,4.2,3.4,7.6,7.6,7.6h137.9c4.2,0,7.6-3.4,7.6-7.6C355.2,300.6,351.8,297.2,347.6,297.2z"/>
	</g>
</g>
<g>
	<g>
		<path class="st0" d="M168.9,263.8H63c-4.2,0-7.6,3.4-7.6,7.6s3.4,7.6,7.6,7.6h105.9c4.2,0,7.6-3.4,7.6-7.6
			C176.4,267.2,173,263.8,168.9,263.8z"/>
	</g>
</g>
<g>
	<g>
		<path class="st0" d="M168.9,295.5H63c-4.2,0-7.6,3.4-7.6,7.6c0,4.2,3.4,7.6,7.6,7.6h105.9c4.2,0,7.6-3.4,7.6-7.6
			S173,295.5,168.9,295.5z"/>
	</g>
</g>
<g>
	<g>
		<path class="st0" d="M345.7,99H223.4c-4.2,0-7.6,3.4-7.6,7.6s3.4,7.6,7.6,7.6h122.3c4.2,0,7.6-3.4,7.6-7.6S349.9,99,345.7,99z"/>
	</g>
</g>
<g>
	<g>
		<path class="st0" d="M345.7,130.6H223.4c-4.2,0-7.6,3.4-7.6,7.6s3.4,7.6,7.6,7.6h122.3c4.2,0,7.6-3.4,7.6-7.6
			S349.9,130.6,345.7,130.6z"/>
	</g>
</g>
<g>
	<g>
		<path class="st0" d="M125.4,367.7H97.8c-4.2,0-7.6,3.4-7.6,7.6c0,4.2,3.4,7.6,7.6,7.6h27.7c4.2,0,7.6-3.4,7.6-7.6
			C133,371.1,129.6,367.7,125.4,367.7z"/>
	</g>
</g>
<g>
	<g>
		<path class="st0" d="M165.7,367.7h-13.1c-4.2,0-7.6,3.4-7.6,7.6c0,4.2,3.4,7.6,7.6,7.6h13.1c4.2,0,7.6-3.4,7.6-7.6
			C173.3,371.1,169.9,367.7,165.7,367.7z"/>
	</g>
</g>
<g>
	<g>
		<path class="st0" d="M319.6,367.7H194.4c-4.2,0-7.6,3.4-7.6,7.6c0,4.2,3.4,7.6,7.6,7.6h125.2c4.2,0,7.6-3.4,7.6-7.6
			C327.2,371.1,323.8,367.7,319.6,367.7z"/>
	</g>
</g>
</svg>
