<?xml version="1.0" encoding="utf-8"?>
<!-- Generator: Adobe Illustrator 23.0.1, SVG Export Plug-In . SVG Version: 6.00 Build 0)  -->
<svg version="1.1" id="Capa_1" xmlns="http://www.w3.org/2000/svg" xmlns:xlink="http://www.w3.org/1999/xlink" x="0px" y="0px"
	 viewBox="0 0 512 512" style="enable-background:new 0 0 512 512;" xml:space="preserve">
<style type="text/css">
	.st0{fill:#ff1d25;}
</style>
<g>
	<g>
		<g>
			<circle class="st0" cx="372.8" cy="75.8" r="7.5"/>
			<circle class="st0" cx="161.5" cy="74.7" r="7.5"/>
			<path class="st0" d="M388.2,341.6v-30.3c0-8.8-7.2-16-16-16H342l-49.9-38.2c-14.5-11.1-34.7-11.1-49.2,0.1l-49.5,38.1h-30.6
				c-8.8,0-16,7.2-16,16v30.3c0,7.3,4.9,13.4,11.5,15.4v56.6c0,8.1,1.5,15.8,4.2,22.9c-54.1-35.1-87.7-95.6-87.7-161.6
				c0-23.6,4.2-46.4,12.4-68.1l9.6,25.9c1.4,3.9,5.9,5.9,9.7,4.4c3.9-1.5,5.9-5.8,4.4-9.7L94.8,184c-1.3-3.8-5.9-5.9-9.7-4.4
				l-43.4,16.2c-3.9,1.5-5.9,5.8-4.4,9.7s5.8,5.9,9.7,4.4l26.7-9.9c-9.3,23.8-13.9,49-13.9,75c0,82.8,49,157.6,125,190.6
				c7.6,5.5,16.4,9.4,25.9,11.2l-5.2,16.9c-1.3,4.4-0.6,9,2.2,12.7c2.7,3.7,6.9,5.8,11.5,5.8h96.6c4.6,0,8.8-2.1,11.5-5.8
				s3.5-8.3,2.2-12.7l-5.2-16.9c29.8-5.6,52.4-31.7,52.4-63.1V357C383.3,355,388.2,348.9,388.2,341.6L388.2,341.6z M252.1,269.1
				c9.1-7,21.7-7,30.8,0l34.3,26.2h-99.1L252.1,269.1z M220.2,496.9l5.9-19.2h82.8l5.9,19.2H220.2z M312.5,462.6h-90.1
				c-27.1,0-49.1-22-49.1-49.1v-55.9h127.3c4.2,0,7.5-3.4,7.5-7.5c0-4.2-3.4-7.5-7.5-7.5H162.8c-0.5,0-1-0.4-1-1v-30.3
				c0-0.5,0.4-1,1-1h209.3c0.5,0,1,0.4,1,1v30.3c0,0.5-0.4,1-1,1h-35.8c-4.2,0-7.5,3.4-7.5,7.5c0,4.2,3.4,7.5,7.5,7.5h25.2v55.9
				C361.6,440.6,339.6,462.6,312.5,462.6L312.5,462.6z"/>
			<path class="st0" d="M451.6,391.4l-16.5,6.1c26-35.4,40-78,40-122.6c0-50.5-18.2-98.9-51.4-136.8c0.3-1.5,0.5-3,0.5-4.6V20.7
				C424.3,9.3,415,0,403.6,0H131.3c-11.4,0-20.7,9.3-20.7,20.7v54.6c0,4.2,3.4,7.5,7.5,7.5c4.2,0,7.5-3.4,7.5-7.5V20.7
				c0-3.1,2.5-5.6,5.6-5.6h100.9c-21.5,12.3-36.1,35.5-36.1,62c0,26.5,14.6,49.7,36.1,62H131.3c-3.1,0-5.6-2.5-5.6-5.6v-22.6
				c0-4.2-3.4-7.5-7.5-7.5c-4.2,0-7.5,3.4-7.5,7.5v22.6c0,11.4,9.3,20.7,20.7,20.7h272.3c4.1,0,8-1.2,11.2-3.3
				c29.3,34.7,45.3,78.4,45.3,124.1c0,46.5-16.4,90.6-46.5,125.6l-11.9-31.9c-1.5-3.9-5.8-5.9-9.7-4.4c-3.9,1.5-5.9,5.8-4.4,9.7
				l16.2,43.4c1.3,3.8,5.9,5.9,9.7,4.4l43.4-16.2c3.9-1.5,5.9-5.8,4.4-9.7C459.8,391.9,455.5,389.9,451.6,391.4L451.6,391.4z
				 M211.2,77.1c0-31,25.2-56.3,56.3-56.3c31,0,56.3,25.2,56.3,56.3s-25.2,56.3-56.3,56.3S211.2,108.1,211.2,77.1z M403.6,139.1
				H302.7c21.5-12.3,36.1-35.5,36.1-62c0-26.5-14.6-49.7-36.1-62h100.9c3.1,0,5.6,2.5,5.6,5.6v112.8
				C409.2,136.5,406.7,139.1,403.6,139.1z"/>
			<path class="st0" d="M248.9,105.2c4.1,2.7,7.4,4,10.9,4.6v0.9c0,4.2,3.4,7.5,7.5,7.5c4.2,0,7.5-3.4,7.5-7.5V109
				c8.2-2.9,13.5-10.3,14.7-17.6c1.7-10.2-3.8-19.5-13.8-23c-4.9-1.7-10.3-3.8-13.2-6.1c-0.9-1.4-0.5-4.9,2.5-6c5-1.5,8.1,1,8.5,1.3
				l2.8,1.3c0,0,7.1,3.2,9.6-3.3c2-5.2-2.3-9.2-2.3-9.2c-1.7-1.6-4.8-3.5-8.7-4.6v-0.8c0-4.2-3.4-7.5-7.5-7.5s-7.5,3.4-7.5,7.5v1.2
				c-6.4,2.3-11.1,7.9-12.4,14.8c-1.3,6.8,1,13.3,5.9,17.2c4.6,3.6,11.2,6.2,17.5,8.5c3.9,1.4,4.3,4.2,4,6.3c-0.5,3-3.1,6.3-7.4,6.3
				c-5.1,0-6.4-0.2-10.2-2.6c-3.5-2.3-8.2-1.3-10.4,2.2C244.5,98.3,245.4,102.9,248.9,105.2L248.9,105.2z"/>
		</g>
	</g>
</g>
</svg>
