<?xml version="1.0" encoding="utf-8"?>
<!-- Generator: Adobe Illustrator 23.0.1, SVG Export Plug-In . SVG Version: 6.00 Build 0)  -->
<svg version="1.1" id="Layer_5" xmlns="http://www.w3.org/2000/svg" xmlns:xlink="http://www.w3.org/1999/xlink" x="0px" y="0px"
	 viewBox="0 0 512 512" style="enable-background:new 0 0 512 512;" xml:space="preserve">
<style type="text/css">
	.st0{fill:#ff1d25;}
</style>
<g>
	<path class="st0" d="M120,192c0-22.1-17.9-40-40-40s-40,17.9-40,40s17.9,40,40,40S120,214.1,120,192z M80,216
		c-13.2,0-24-10.8-24-24s10.8-24,24-24s24,10.8,24,24S93.2,216,80,216z"/>
	<path class="st0" d="M504,248V104H388.1c-21.6-22.2-48.3-38.6-77.7-47.7c-1.8-4.6-5-8.7-9.5-11.2l-60.7-33.7
		c-4-2.2-8.6-3.4-13.1-3.4C212.1,8,200,20.1,200,35.1v21.7c-29.9,9.6-57,26.6-78.6,49.8l11.7,10.9c18.5-19.9,41.5-34.9,66.9-43.9
		v19.4c0,14.9,12.1,27.1,27.1,27.1c4.6,0,9.1-1.2,13.1-3.4l60.7-33.7c4.1-2.3,7.1-5.9,9-10c20.1,6.8,38.6,17.4,54.8,31.1H312v144
		h111.1c-2.8,29.3-13.1,57.1-30.2,81.1c-0.3-0.1-0.6-0.2-1-0.3V288c0-13.2-10.8-24-24-24c-11.4,0-20.9,8-23.3,18.6
		c-39.8,19.2-84,29.4-128.2,29.4H160c-16.1,0-30,9.7-36.3,23.5c-16.4-21-27.5-45.3-32.5-71.5h10.5l3.8-10.6l10.2,4.8l30.6-30.6
		l-4.8-10.2l10.6-3.8v-43.2l-10.6-3.8l4.8-10.2l-30.6-30.6l-10.2,4.8l-3.8-10.6H58.4l-3.8,10.6l-10.2-4.8l-30.6,30.6l4.8,10.2
		L8,170.4v43.2l10.6,3.8l-4.8,10.2l30.6,30.6l10.2-4.8l3.8,10.6h16.5c6,34.3,21.5,65.9,45.1,91.8V384c0,20.5,15.6,37.3,35.5,39.5
		l13.8,80.5H216v-34.2l48-16V428c27.9,4.6,55.2,13.2,80.7,25.4c2.5,10.6,12,18.6,23.3,18.6c13.2,0,24-10.8,24-24v-40.8
		c18.2-3.7,32-19.9,32-39.2c0-13.2-6.5-24.8-16.3-32c18-26.2,28.8-56.3,31.5-88L504,248z M293.1,68.9l-60.7,33.7
		c-1.6,0.9-3.5,1.4-5.4,1.4c-6.1,0-11.1-5-11.1-11.1V35.1c0-6.1,5-11.1,11.1-11.1c1.9,0,3.7,0.5,5.4,1.4l60.7,33.7
		c1.8,1,2.9,2.9,2.9,4.9S294.9,67.9,293.1,68.9z M67.2,241.4l-1.7-3.6l-8.2-3.4l-9.6,4.5l-14.7-14.7l4.5-9.6L34,206l-10-3.6v-20.8
		l6.6-2.4l3.5-1.6l3.4-8.2l-4.5-9.6L47.8,145l9.6,4.5L66,146l3.6-10h20.8l2.4,6.6l1.7,3.6l8.2,3.4l9.6-4.5l14.7,14.7l-4.5,9.6
		l3.6,8.6l10,3.6v20.8l-6.6,2.4l-3.5,1.6l-3.4,8.2l4.5,9.6L112.2,239l-9.6-4.5L94,238l-3.6,10H69.6L67.2,241.4z M344,300.5v135
		c-40-17.9-83.8-27.5-127.6-27.5H200v-80h16.4C260.2,328,304,318.5,344,300.5z M136,384v-32c0-13.2,10.8-24,24-24h24v80h-24
		C146.8,408,136,397.2,136,384z M182.7,488l-11-64H200v64H182.7z M248,442.2l-32,10.7V424h0.4c10.5,0,21.1,0.6,31.6,1.8V442.2z
		 M376,448c0,4.4-3.6,8-8,8s-8-3.6-8-8V288c0-4.4,3.6-8,8-8s8,3.6,8,8V448z M392,390.5v-45c9.3,3.3,16,12.1,16,22.5
		S401.3,387.2,392,390.5L392,390.5z M436.1,190.5l51.9-57.6v92.2L436.1,190.5z M420.4,184h-24.9L338,120H478L420.4,184z
		 M379.9,190.5L328,225.1v-92.2L379.9,190.5z M394.4,200h27.2l48,32H346.4L394.4,200z"/>
	<path class="st0" d="M240,216h-16c-4.4,0-8-3.6-8-8h-16c0,13.2,10.8,24,24,24v16h16v-16c13.2,0,24-10.8,24-24s-10.8-24-24-24h-16
		c-4.4,0-8-3.6-8-8s3.6-8,8-8h16c4.4,0,8,3.6,8,8h16c0-13.2-10.8-24-24-24v-16h-16v16c-13.2,0-24,10.8-24,24s10.8,24,24,24h16
		c4.4,0,8,3.6,8,8S244.4,216,240,216z"/>
</g>
</svg>
