<?xml version="1.0" encoding="utf-8"?>
<!-- Generator: Adobe Illustrator 23.0.1, SVG Export Plug-In . SVG Version: 6.00 Build 0)  -->
<svg version="1.1" id="Layer_1" xmlns="http://www.w3.org/2000/svg" xmlns:xlink="http://www.w3.org/1999/xlink" x="0px" y="0px"
	 viewBox="0 0 512 512" style="enable-background:new 0 0 512 512;" xml:space="preserve">
<style type="text/css">
	.st0{fill:#ff1d25;}
</style>
<title>Business Agreements</title>
<path class="st0" d="M255.7,185.9h-83.9c-3.3,0-6,2.7-6,6s2.7,6,6,6h83.9c3.3,0,6-2.7,6-6S259,185.9,255.7,185.9L255.7,185.9z"/>
<path class="st0" d="M255.7,229.9h-83.9c-3.3,0-6,2.7-6,6s2.7,6,6,6h83.9c3.3,0,6-2.7,6-6S259,229.9,255.7,229.9L255.7,229.9z"/>
<path class="st0" d="M255.7,274h-83.9c-3.3,0-6,2.7-6,6s2.7,6,6,6h83.9c3.3,0,6-2.7,6-6S259,274,255.7,274L255.7,274z"/>
<path class="st0" d="M255.7,318.1h-83.9c-3.3,0-6,2.7-6,6s2.7,6,6,6h83.9c3.3,0,6-2.7,6-6S259,318.1,255.7,318.1L255.7,318.1z"/>
<path class="st0" d="M255.7,362.2h-83.9c-3.3,0-6,2.7-6,6s2.7,6,6,6h83.9c3.3,0,6-2.7,6-6S259,362.2,255.7,362.2L255.7,362.2z"/>
<path class="st0" d="M319.7,185.4h54.1c3.3,0,6-2.7,6-6s-2.7-6-6-6h-54.1c-3.3,0-6,2.7-6,6S316.4,185.4,319.7,185.4z"/>
<path class="st0" d="M255.7,141.8h-83.9c-3.3,0-6,2.7-6,6s2.7,6,6,6h83.9c3.3,0,6-2.7,6-6S259,141.8,255.7,141.8L255.7,141.8z"/>
<path class="st0" d="M367.3,455h-32.2c-3.3,0-6,2.7-6,6s2.7,6,6,6h32.2c3.3,0,6-2.7,6-6S370.6,455,367.3,455L367.3,455z"/>
<path class="st0" d="M398.4,394.3v-1.5c8.6-3.3,12.9-13,9.6-21.6c-2.5-6.5-8.7-10.7-15.6-10.7c-2.6,0-4.7-2.1-4.7-4.7
	s2.1-4.7,4.7-4.7c2.6,0,4.7,2.1,4.7,4.7c0,0,0,0,0,0c0,3.3,2.7,6,6,6s6-2.7,6-6c0-6.9-4.3-13.1-10.7-15.6v-1c0-3.3-2.7-6-6-6
	s-6,2.7-6,6v1c-8.6,3.3-12.9,13-9.6,21.6c2.5,6.5,8.7,10.7,15.6,10.7c2.6,0,4.7,2.2,4.7,4.8c0,2.6-2.1,4.7-4.7,4.7c0,0,0,0-0.1,0
	s0,0-0.1,0c-2.6,0-4.7-2.1-4.7-4.7c0-3.3-2.7-6-6-6s-6,2.7-6,6c0,6.9,4.3,13.1,10.7,15.6v1.5c0,3.3,2.7,6,6,6
	S398.4,397.6,398.4,394.3L398.4,394.3z"/>
<path class="st0" d="M345.9,381.9C345.9,381.9,345.9,381.9,345.9,381.9c-0.1,0-0.1,0-0.1,0c-2.6,0-4.7-2.1-4.7-4.7c0-3.3-2.7-6-6-6
	s-6,2.7-6,6c0,6.9,4.3,13.1,10.7,15.6v1.5c0,3.3,2.7,6,6,6s6-2.7,6-6v-1.5c8.6-3.3,12.9-13,9.6-21.6c-2.5-6.5-8.7-10.7-15.6-10.7
	c-2.6,0-4.7-2.1-4.7-4.7s2.1-4.7,4.7-4.7c2.6,0,4.7,2.1,4.7,4.7c0,0,0,0,0,0c0,3.3,2.7,6,6,6s6-2.7,6-6c0-6.9-4.3-13.1-10.7-15.6v-1
	c0-3.3-2.7-6-6-6s-6,2.7-6,6v1c-8.6,3.3-12.9,13-9.6,21.6c2.5,6.5,8.7,10.7,15.6,10.7c2.6,0,4.7,2.2,4.7,4.8
	C350.5,379.7,348.5,381.8,345.9,381.9L345.9,381.9z"/>
<path class="st0" d="M438.9,350.9c2.6,0,4.7,2.1,4.7,4.7c0,3.3,2.7,6,6,6s6-2.7,6-6c0-6.9-4.3-13.1-10.7-15.6v-1c0-3.3-2.7-6-6-6
	s-6,2.7-6,6v1c-8.6,3.3-12.9,13-9.6,21.6c2.5,6.5,8.7,10.7,15.6,10.7c2.6,0,4.7,2.2,4.7,4.8c0,2.6-2.1,4.7-4.7,4.7c0,0,0,0-0.1,0
	s0,0-0.1,0c-2.6,0-4.7-2.1-4.7-4.7c0-3.3-2.7-6-6-6s-6,2.7-6,6c0,6.9,4.3,13.1,10.7,15.6v1.5c0,3.3,2.7,6,6,6s6-2.7,6-6v-1.5
	c8.6-3.3,12.9-13,9.6-21.6c-2.5-6.5-8.7-10.7-15.6-10.7c-2.6,0-4.7-2.2-4.7-4.8C434.3,353,436.4,350.9,438.9,350.9L438.9,350.9z"/>
<path class="st0" d="M367.3,412.1h-32.2c-3.3,0-6,2.7-6,6s2.7,6,6,6h32.2c3.3,0,6-2.7,6-6S370.6,412.1,367.3,412.1L367.3,412.1z"/>
<path class="st0" d="M367.3,433.6h-32.2c-3.3,0-6,2.7-6,6s2.7,6,6,6h32.2c3.3,0,6-2.7,6-6S370.6,433.6,367.3,433.6L367.3,433.6z"/>
<path class="st0" d="M335.1,304.5h75.2c3.3,0,6-2.7,6-6s-2.7-6-6-6h-75.2c-3.3,0-6,2.7-6,6S331.8,304.5,335.1,304.5z"/>
<path class="st0" d="M335.1,326h75.2c3.3,0,6-2.7,6-6s-2.7-6-6-6h-75.2c-3.3,0-6,2.7-6,6S331.8,326,335.1,326z"/>
<path class="st0" d="M415,441.6c-2.3-2.3-6.1-2.3-8.5,0c0,0,0,0,0,0l-3.4,3.4l-3.4-3.4c-2.4-2.3-6.2-2.3-8.5,0.1
	c-2.3,2.3-2.3,6.1,0,8.4l3.4,3.4l-3.4,3.4c-2.4,2.3-2.4,6.1-0.1,8.5c2.3,2.4,6.1,2.4,8.5,0.1c0,0,0.1-0.1,0.1-0.1l3.4-3.4l3.4,3.4
	c2.3,2.4,6.1,2.4,8.5,0.1s2.4-6.1,0.1-8.5c0,0,0,0-0.1-0.1l-3.4-3.4l3.4-3.4C417.3,447.7,417.3,443.9,415,441.6z"/>
<path class="st0" d="M443.6,441.6c-2.3-2.3-6.1-2.3-8.5,0l-3.4,3.4l-3.4-3.4c-2.3-2.3-6.1-2.3-8.5,0c-2.3,2.3-2.3,6.1,0,8.5l3.4,3.4
	l-3.4,3.4c-2.3,2.3-2.3,6.1,0,8.5c2.3,2.3,6.1,2.3,8.5,0l3.4-3.4l3.4,3.4c2.4,2.3,6.2,2.3,8.5-0.1c2.3-2.3,2.3-6.1,0-8.4l-3.4-3.4
	l3.4-3.4C446,447.7,446,443.9,443.6,441.6z"/>
<path class="st0" d="M448.6,441.6c-2.3,2.3-2.3,6.1,0,8.5l3.4,3.4l-3.4,3.4c-2.3,2.4-2.3,6.2,0.1,8.5c2.3,2.3,6.1,2.3,8.4,0l3.4-3.4
	l3.4,3.4c2.3,2.3,6.1,2.3,8.5,0c2.3-2.3,2.3-6.1,0-8.5l0,0l-3.4-3.4l3.4-3.4c2.3-2.3,2.3-6.1,0-8.5c-2.3-2.3-6.1-2.3-8.5,0l-3.4,3.4
	l-3.4-3.4C454.7,439.3,450.9,439.3,448.6,441.6z"/>
<path class="st0" d="M87.3,87.5H73V43.8c0-3.3-2.7-6-6-6H16c-3.3,0-6,2.7-6,6V406c0,1,0.3,2.1,0.8,3l25.5,44.8
	c1.6,2.9,5.3,3.9,8.2,2.2c0.9-0.5,1.7-1.3,2.2-2.2L72.2,409c0.5-0.9,0.8-1.9,0.8-3V99.5h8.3v161.6c0,3.3,2.7,6,6,6s6-2.7,6-6V93.5
	C93.3,90.2,90.6,87.5,87.3,87.5z M41.5,438.7l-10.9-19.1h21.8L41.5,438.7z M61,404.4l-1.8,3.1H23.8l-1.8-3.1v-79.1h39V404.4z
	 M61,313.3H22V80.9h39V313.3z M61,68.9H22V49.8h39V68.9z"/>
<path class="st0" d="M41.5,459.9c-3.3,0-6,2.7-6,6v7.6c0,3.3,2.7,6,6,6s6-2.7,6-6v-7.6C47.5,462.6,44.8,459.9,41.5,459.9z"/>
<path class="st0" d="M443.4,240.6c-1.1-1.1-2.7-1.8-4.2-1.8h-4.7l-26.2-26.2v-77c0-3.3-2.7-6-6-6H299.1V98.2c0-3.3-2.7-6-6-6h-16.4
	V54.7c0-3.3-2.7-6-6-6h-51.2V23.6c0-3.3-2.7-6-6-6s-6,2.7-6,6v25.1h-50.8c-3.3,0-6,2.7-6,6v37.6h-16.4c-3.3,0-6,2.7-6,6V411
	c0,3.3,2.7,6,6,6h130.9v24.7c0,13.2,10.8,24,24,24h11.8v4.6c0,13.2,10.8,24,24,24H478c13.2,0,24-10.8,24-24V301.7
	c0-1.6-0.6-3.1-1.8-4.2L443.4,240.6z M445.2,259.4l36.3,36.3h-26.1c-5.6,0-10.2-4.6-10.2-10.2L445.2,259.4z M409.4,230.7l8.2,8.2
	h-8.2V230.7z M396.4,141.7v68.5h-97.2v-68.5L396.4,141.7z M162.8,60.7h102v31.6h-102V60.7z M140.4,405V104.2h146.7v106.1
	c-12.3,1.1-21.8,11.5-21.8,23.9V405H140.4z M301.1,262.9v190.8h-11.8c-6.6,0-12-5.4-12-12V234.2c0-6.6,5.4-12,12-12h108.1v16.6
	h-72.3C311.9,238.9,301.1,249.6,301.1,262.9z M490,470.4c0,6.6-5.4,12-12,12H325.1c-6.6,0-12-5.4-12-12V262.9c0-6.6,5.4-12,12-12
	h108.1v34.6c0,12.3,10,22.2,22.2,22.2H490V470.4z"/>
</svg>
