<?xml version="1.0" encoding="utf-8"?>
<!-- Generator: Adobe Illustrator 23.0.1, SVG Export Plug-In . SVG Version: 6.00 Build 0)  -->
<svg version="1.1" id="Line_Expand" xmlns="http://www.w3.org/2000/svg" xmlns:xlink="http://www.w3.org/1999/xlink" x="0px"
	 y="0px" viewBox="0 0 512 512" style="enable-background:new 0 0 512 512;" xml:space="preserve">
<style type="text/css">
	.st0{fill:#ff1d25;}
</style>
<path class="st0" d="M496,465.5v-74.9c12.5-4.4,19-18.1,14.6-30.5c-3.4-9.6-12.5-16-22.6-16h-41.5c0.9-2.6,1.4-5.3,1.5-8
	c0-10.1-6.4-19.2-16-22.5V296h25.4l-14-83.9c11.1-10.6,11.4-28.3,0.8-39.3c-3.4-3.5-7.6-6.1-12.2-7.4v-34.8l-20.8-7.9L477.5,96
	L256,7.4L34.5,96l93.5,37.4V232H96c-35.3,0-64,28.6-64,63.9c0,20.6,9.9,40,26.7,52c-44.2,14-68.8,61.1-54.8,105.4
	c11,35,43.5,58.7,80.1,58.7h404c13.2,0,24-10.7,24-23.9C512,477.9,505.6,468.9,496,465.5z M480,408H336v16h144v40H82.6
	c-19.9,0-36-16.1-36-36s16.1-36,36-36H480V408z M416,312H96c-8.8,0-16-7.2-16-16s7.2-16,16-16h95.8c20.9,5.5,42.5,8.2,64.2,8
	c21.7,0.2,43.3-2.5,64.2-8h73l-2.7,16H416V312z M379.6,248h19l-2.7,16h-37C366.5,259.6,373.4,254.2,379.6,248z M438.6,280h-29.1
	l10.1-60.5c3,0.6,6,0.6,9,0L438.6,280z M436,192c0,6.6-5.4,12-12,12s-12-5.4-12-12s5.4-12,12-12C430.6,180,436,185.4,436,192z
	 M416,141.5v23.8c-14.7,4.3-23.2,19.8-18.9,34.5c1.4,4.7,3.9,8.9,7.4,12.2l-3.3,19.9H384v-98.6l5.2-2.1L416,141.5z M256,24.6
	L434.5,96l-45.4,18.1L258.8,64.5l-5.7,15l114,43.4L256,167.4L77.5,96L256,24.6z M256,184.6l112-44.8V237c-7.2,7.4-38.8,35-112,35
	c-73.3,0-104.9-27.7-112-35v-97.2L256,184.6z M48,296c0-26.5,21.5-48,48-48h36.4c6.1,6.2,13.1,11.6,20.7,16H96
	c-17.7,0-32,14.3-32,32s14.3,32,32,32h328c4.4,0,8,3.6,8,8s-3.6,8-8,8H96C69.5,344,48,322.5,48,296z M488,496H84
	c-37.6,0-68-30.4-68-68s30.4-68,68-68h404c4.4,0,8,3.6,8,8s-3.6,8-8,8H82.6c-28.7,0-52,23.3-52,52s23.3,52,52,52H488
	c4.4,0,8,3.6,8,8S492.4,496,488,496z"/>
<rect x="80" y="432" class="st0" width="224" height="16"/>
</svg>
