<?xml version="1.0" encoding="utf-8"?>
<!-- Generator: Adobe Illustrator 23.0.1, SVG Export Plug-In . SVG Version: 6.00 Build 0)  -->
<svg version="1.1" id="_x33_0" xmlns="http://www.w3.org/2000/svg" xmlns:xlink="http://www.w3.org/1999/xlink" x="0px" y="0px"
	 viewBox="0 0 512 512" style="enable-background:new 0 0 512 512;" xml:space="preserve">
<style type="text/css">
	.st0{fill:#ff1d25;}
</style>
<g>
	<path class="st0" d="M504,40.7l-7.3-0.7c-41-3.8-77.6-14.3-109-31.1l-3.8-2l-3.8,2C349,25.7,312.4,36.2,271.5,40H56
		c-8.8,0-16,7.2-16,16v32c0,8.8,7.2,16,16,16v116.1c-13.6,11.2-23.8,26.4-28.7,43.9H24c-8.8,0-16,7.2-16,16v16c0,8.8,7.2,16,16,16
		h3.3c4.9,17.5,15.1,32.7,28.7,43.9V464c0,22.1,17.9,40,40,40h352c22.1,0,40-17.9,40-40V170.3c10.2-21.3,16-45,16-69.9V40.7z
		 M339,123.3c-2-5-3-10.4-3-15.8c0-24,19.5-43.5,43.5-43.5h9c24,0,43.5,19.5,43.5,43.5c0,5.2-1,10.5-2.8,15.4
		c-3.4-6.4-9.6-11.2-17.2-12.5l-15.6-2.6c-8.8-1.5-16-7.6-18.8-16.1l-1.9-5.7l-15.2,5.1l1.9,5.7c0.8,2.3,1.8,4.5,2.9,6.6l-9.1,3.6
		C348.3,110.2,342.4,116,339,123.3L339,123.3z M352,136.8c0-6.6,4-12.4,10.1-14.9l14.3-5.7c5,3.7,10.9,6.3,17.3,7.4l15.6,2.6
		c3.9,0.6,6.7,4,6.7,7.9v10.4c0,17.6-14.4,32-32,32c-17.6,0-32-14.4-32-32L352,136.8z M384,192.5L384,192.5c4.4,0,8.5-0.6,12.5-1.7
		l2.9,8.7c-3.2,5.5-8.9,9-15.4,9s-12.2-3.5-15.4-9l2.9-8.7C375.5,191.9,379.7,192.5,384,192.5L384,192.5z M355.4,208.7
		c6.2,9.8,16.8,15.8,28.6,15.8s22.4-6,28.6-15.8l16,2.3c2.3,0.3,4.5,1,6.6,1.8c-14.8,12.2-32,21.4-51.1,26.9
		c-19.1-5.5-36.4-14.8-51.1-26.9c2.1-0.8,4.3-1.4,6.6-1.8L355.4,208.7z M381.9,255.7l2.1,0.6l2.1-0.6c13.5-3.7,26.2-9.1,37.9-15.9
		V440H120v-48c8.8,0,16-7.2,16-16v-3.3c29.4-8.3,52.4-31.2,60.7-60.7h3.3c8.8,0,16-7.2,16-16v-16c0-8.8-7.2-16-16-16h-3.3
		c-8.3-29.4-31.2-52.4-60.7-60.7V200c0-8.8-7.2-16-16-16v-48h148.1C280.9,193.2,324.1,240.1,381.9,255.7L381.9,255.7z M136,220.1
		c20.5,7.2,36.6,23.3,43.9,43.9h-36.1c-2.2-3-4.8-5.6-7.8-7.8L136,220.1z M136,319.8c3-2.2,5.6-4.8,7.8-7.8h36.1
		c-7.2,20.5-23.3,36.6-43.9,43.9V319.8z M151.2,296c0.5-2.6,0.8-5.3,0.8-8s-0.3-5.4-0.8-8H200v16H151.2z M120,200v48.8
		c-2.6-0.5-5.3-0.8-8-0.8s-5.4,0.3-8,0.8V200H120z M112,264c13.2,0,24,10.8,24,24s-10.8,24-24,24s-24-10.8-24-24S98.8,264,112,264z
		 M112,328c2.7,0,5.4-0.3,8-0.8V376h-16v-48.8C106.6,327.7,109.3,328,112,328L112,328z M56,56h208v32H56L56,56z M72,104h192.1
		c0.1,5.4,0.5,10.7,1.2,16H120c-8.8,0-16,7.2-16,16v48c-8.8,0-16,7.2-16,16v3.3c-5.6,1.6-10.9,3.7-16,6.3V104z M88,220.1v36.1
		c-3,2.2-5.6,4.8-7.8,7.8H44.1C51.4,243.5,67.5,227.4,88,220.1z M24,280h48.8c-0.5,2.6-0.8,5.3-0.8,8s0.3,5.4,0.8,8H24V280z
		 M44.1,312h36.1c2.2,3,4.8,5.6,7.8,7.8v36.1C67.5,348.6,51.4,332.5,44.1,312z M472,464c0,13.2-10.8,24-24,24H96
		c-13.2,0-24-10.8-24-24v-97.6c5.1,2.6,10.4,4.7,16,6.3v3.3c0,8.8,7.2,16,16,16v48c0,8.8,7.2,16,16,16h304c8.8,0,16-7.2,16-16V229.1
		c12.2-9.2,22.9-20,32-32.2V464z M488,100.5c0,38.5-15.2,74.2-40.4,100.5c-5.2-2.9-10.9-5-16.9-5.8l-16.8-2.4l-2.9-8.7
		c9.7-6.7,16.8-16.8,19.6-28.6l10.7-20.6c4.3-8.4,6.6-17.8,6.6-27.3c0-32.8-26.7-59.5-59.5-59.5h-9c-32.8,0-59.5,26.7-59.5,59.5
		c0,9.5,2.3,18.9,6.6,27.3l10.7,20.6c2.8,11.8,9.9,22,19.6,28.6l-2.9,8.7l-16.8,2.4c-6,0.9-11.7,2.9-16.9,5.8
		c-25.2-26.3-40.4-62-40.4-100.5V55.2c38.6-4.4,73.5-14.5,104-30.2c30.5,15.7,65.4,25.8,104,30.2L488,100.5z"/>
	<path class="st0" d="M360,406.5V424h16v-16h16v-24c0-13.2-10.8-24-24-24c-4.4,0-8-3.6-8-8v-8h8c4.4,0,8,3.6,8,8v8h16v-8
		c0-10.4-6.7-19.2-16-22.5V312h-16v16h-16v24c0,13.2,10.8,24,24,24c4.4,0,8,3.6,8,8v8h-8c-4.4,0-8-3.6-8-8v-8h-16v8
		C344,394.4,350.7,403.2,360,406.5z"/>
	<path class="st0" d="M312,376h16v16h-16V376z"/>
	<path class="st0" d="M280,376h16v16h-16V376z"/>
</g>
</svg>
